PathFileType	4	(X/Y/Z)	64_2_82_p0_0-585_filt_butterworth.trc
DataRate	CameraRate	NumFrames	NumMarkers	Units	OrigDataRate	OrigDataStartFrame	OrigNumFrames
59.0	59.0	7	27	m	59.0	146	585
Frame#	Time	RHip			RKnee			RAnkle			RBigToe			RSmallToe			RHeel			LHip			LKnee			LAnkle			LBigToe			LSmallToe			LHeel			Neck			Head			Nose			RShoulder			RElbow			RWrist			RThumb			RIndex			RPinky			LShoulder			LElbow			LWrist			LThumb			LIndex			LPinky			
		X1	Y1	Z1	X2	Y2	Z2	X3	Y3	Z3	X4	Y4	Z4	X5	Y5	Z5	X6	Y6	Z6	X7	Y7	Z7	X8	Y8	Z8	X9	Y9	Z9	X10	Y10	Z10	X11	Y11	Z11	X12	Y12	Z12	X13	Y13	Z13	X14	Y14	Z14	X15	Y15	Z15	X16	Y16	Z16	X17	Y17	Z17	X18	Y18	Z18	X19	Y19	Z19	X20	Y20	Z20	X21	Y21	Z21	X22	Y22	Z22	X23	Y23	Z23	X24	Y24	Z24	X25	Y25	Z25	X26	Y26	Z26	X27	Y27	Z27	
146	2.4745762711864407	0.30705539193676984	0.8438777451413126	0.6175401834578534	0.2816898706561618	1.0290509136102461	0.9394266947999773	0.2658081643660244	1.2516064567241236	1.3036404231885785	0.2733250762362784	1.10830582224002	1.419927167328622	0.346498195738196	1.1016980378045969	1.397403089068331	0.22703346708086758	1.3219535451556446	1.3309282611838873	0.10309111388116879	0.8182386147310128	0.6317796927853013	0.09242512950270496	0.9770588505148088	0.9693465487280608	0.07841187164988829	1.2072927287520012	1.3273892117767352	0.12506854825980068	1.0478533809519506	1.4239245168513095	0.055969119864442085	1.0787664982383551	1.4092634295762492	0.08108096548818548	1.2672938887959573	1.35606955729774	0.2528110619464309	0.38956348851289857	0.3844080868405855	0.260061714139953	0.16468464738516322	0.23485487546798872	0.25823914278094356	0.18862167677641917	0.3690322425021182	0.39902771753975763	0.4477715153951741	0.417955012235636	0.4412451049299765	0.581385941424774	0.6287422294996963	0.4142779943091575	0.5130647536968511	0.8761745311502772	0.3250019133904968	0.5077073067338341	0.9664138944634777	0.35230079550672505	0.48374622930606903	0.9964606318425905	0.37942548254343855	0.4955113853771967	0.9943191210929386	0.09131200546766115	0.43136485813245096	0.429809294061289	0.06566745786938359	0.4993901245612503	0.6458042438979741	0.09986105422263158	0.532999706040634	0.8806550935246032	0.15994381816784783	0.5342465204398288	0.961151423664974	0.15431680439855475	0.534394538334168	1.0010805790126829	0.132204711569278	0.5586054179789679	1.002113506343392
147	2.4915254237288136	0.3069583586991347	0.841778033523906	0.6212556691008204	0.27836617143525094	1.0293696415216762	0.9397643025766798	0.26822698813203394	1.2475848911248284	1.3037278300304143	0.2733019969144409	1.1085527085428173	1.4198407441289758	0.3460201660830443	1.1025502472326072	1.3988456572003323	0.22724938738595837	1.322097119231247	1.3312927319213244	0.10195595844938472	0.8212641886683165	0.6319740545262711	0.08806015332535594	0.9792160044771998	0.9693810531081668	0.07843765810260496	1.2059400660179467	1.3264517489204526	0.125446495736039	1.048045334056228	1.4247702676104816	0.05600431342795115	1.0786614922010924	1.4093082449457777	0.08138078647142863	1.2663299527776508	1.356077934336817	0.25270045834101096	0.392722255055996	0.3938678601984779	0.259273975473239	0.1657516006858271	0.24310837038255903	0.25921986646682443	0.18647979518872257	0.3800815449931618	0.3988383340988466	0.4470614554685175	0.4218580710946091	0.4372730817523944	0.579907022238289	0.6330175141744869	0.41061871742270006	0.5170253075884478	0.8840070312274029	0.32510066984483	0.5088420525832136	0.9779306088197998	0.3510496432614387	0.4808802037022371	0.9995102430008711	0.3684606394828452	0.503438460208953	0.9975847399712667	0.09124599264615234	0.429823735864707	0.43567755275401804	0.06774628413417082	0.5074415582454671	0.6492424327162296	0.10161270253793352	0.5411452020666844	0.8862448650763988	0.16343335728513306	0.5438275015355375	0.9690874629252642	0.15956951141026432	0.5420569795634449	1.0066427144158065	0.13318023130214143	0.5717081605295039	1.0152944254113474
148	2.5084745762711864	0.3067301923453475	0.8402352566400046	0.6225929864849092	0.27537532844477425	1.0291913533908308	0.9383597486715187	0.27149767644792183	1.2418747172341784	1.3041740593399724	0.2732821684048744	1.1069658994014933	1.4201251834545072	0.3448094434346763	1.103310178164245	1.3999533517919533	0.22817775992618114	1.3202341945232825	1.3315158696935787	0.10161301911283876	0.821032514538977	0.6319751796031975	0.08392655047215077	0.9806695782131291	0.9684662447904399	0.07841978501367555	1.20445635373689	1.3252020546930987	0.1273940852776832	1.0434014498374906	1.4249345462152827	0.05601282653071968	1.0784373645778191	1.409389953582195	0.0813227183624823	1.2655189939538254	1.3556324010646197	0.2526570087699616	0.39728603968676435	0.40676868133169336	0.2578217220914429	0.1676157685658486	0.25098455931293356	0.2610232739145423	0.18438708053697644	0.3944659720244532	0.398697284375961	0.4470058354292228	0.42626354822329005	0.43318095746283514	0.5797287498523334	0.6384491435322717	0.4065484204739744	0.5218546200226624	0.8909244845695831	0.32603425312647377	0.5093812743203354	0.9869398803396885	0.3482684721180095	0.48003327118239536	1.0022283787117994	0.35775259384360203	0.5157217001814972	1.0023647691488797	0.09156664182853579	0.42725378063723807	0.4417952362502941	0.0683410484686944	0.5178715573727121	0.6540797885745572	0.10434288725420113	0.5483488217848539	0.894174655971795	0.1697011782841542	0.55309218727484	0.9790857420226471	0.1645829272705388	0.5494968318666725	1.0122091980637404	0.1345137018610227	0.583226251168402	1.02603412172067
149	2.5254237288135597	0.3065304348896907	0.8398447759479037	0.6221451924269443	0.27275882936295204	1.0290190918079272	0.9372181424722698	0.273729053237682	1.237882586791706	1.3046698664634908	0.2733641738750023	1.1015927201673061	1.4210483571124255	0.34255110807892064	1.103691772685247	1.4001822265292425	0.23028059084142793	1.316282630955992	1.3321973398914495	0.10308565153834781	0.8205338079538628	0.6321797686776132	0.08098582884459751	0.9832702979260093	0.967055882518801	0.07826090161585961	1.2035121396611634	1.3243015245884437	0.1302294199903579	1.034028220495968	1.4246515286216124	0.05600641019820839	1.0780037825401152	1.4094902083634622	0.07994023875676647	1.2653793412870349	1.3545555678745256	0.25259418607248985	0.4029497298475857	0.42103013821597657	0.2560718779224739	0.16914311286043285	0.2585025909687897	0.2630506208150373	0.18436081426087192	0.4094689694036481	0.3987772413321391	0.44855483449068	0.43067789231936937	0.4295345296749264	0.5796747323226149	0.6458384207248139	0.401484988467758	0.5296760564979835	0.8965482272950119	0.32624473496844736	0.5102080925113691	0.9931802273605722	0.3427783140320873	0.4849292952113979	1.0073498972308408	0.3473474048283793	0.5316965486554117	1.0117028393885683	0.09185655140881054	0.4252999625328594	0.4476780009033906	0.06807402811856421	0.5285253617320345	0.6615184589315637	0.10947370198699438	0.5522476919144355	0.904722624221932	0.1781959140157293	0.5575711413488436	0.9889581446500889	0.16904811688409593	0.5575177712423978	1.018725926612664	0.1363620010354761	0.5932926714524231	1.0331429449645002
150	2.542372881355932	0.30638586319963507	0.8400996129706677	0.6218670763959084	0.27109069980888817	1.0295847928849693	0.9381632441270965	0.2738767079938198	1.2371895876675145	1.3049790909629084	0.2735991462842836	1.0929479285426469	1.4223445273863735	0.33981784845336344	1.1036367346234965	1.3997974255496857	0.2322140423291794	1.3134650936778018	1.333311829052422	0.10579084497484545	0.8232171931640507	0.6328185197451794	0.07979143799550098	0.9883577508251756	0.9664266108894296	0.07791616059490851	1.2033724605905594	1.3240668922287517	0.1329772125012781	1.0237655172862983	1.424329192244001	0.05599700830345318	1.0778242147489197	1.4095821916721725	0.07662707235470935	1.26617359945655	1.3533113206573628	0.25253183864139156	0.40797003795476067	0.4332980562657269	0.25469529117354983	0.1696441256041023	0.26616010349008096	0.2644883039093273	0.18671707643805519	0.42169276289723706	0.3995871094102635	0.4501328395420565	0.43564686891289117	0.42601330036946117	0.580013192556885	0.6562028548830874	0.3947557740773122	0.5416899439385392	0.9017296786515065	0.32450971895603886	0.510264127920894	0.998571495758496	0.3360766121098379	0.4942242367705697	1.0182353575436722	0.3380607649522158	0.5502114482240011	1.0273991772070143	0.09182333188258705	0.4263157340950474	0.45257351761456394	0.06763920367274007	0.5391126935417878	0.6698940942887287	0.11676174604810025	0.5528725237388704	0.9169984494571255	0.18631846687676903	0.557171547302694	0.9972892774669454	0.1722858149771891	0.5643756508353532	1.0261642502786636	0.13818627252457114	0.6015385668364812	1.037644860798564
151	2.559322033898305	0.3062371127451347	0.8407440853719523	0.6228923800042369	0.2706353561681387	1.0310173285293158	0.9413668301927283	0.2720294602167659	1.2383843736580458	1.3053024320621582	0.2738739968455105	1.0855367262988138	1.42332808433395	0.3379430556594158	1.1032617982471056	1.3996428559294827	0.23199322414853585	1.3163899467286801	1.3343528084237501	0.1078102187669362	0.8299721840635889	0.63370957504767	0.07964425205117087	0.9953206484002454	0.9676088450673533	0.07748812448121703	1.203840932591023	1.3242781109014854	0.13472196767968178	1.0171757630188378	1.4241329623875891	0.05592711453130154	1.0791955868419694	1.4096793237783127	0.07249710865400563	1.267496500846374	1.352623835109237	0.25248379886774197	0.4118162655040751	0.44185696643478334	0.25454033271975224	0.16931091853109206	0.2744899632231728	0.2650013455341438	0.1894971198523936	0.4302043215527306	0.4013611741584659	0.4505132818419795	0.44241900436304354	0.4209429376757737	0.5834922980826597	0.6688685799674192	0.3863451217794023	0.5574652037689627	0.9076399832260041	0.320175323331978	0.5089668206541808	1.0054700490066693	0.3297846262400643	0.5032072623847857	1.035226913054061	0.3313508458517575	0.5671913890716624	1.0462245442184492	0.0914225516418303	0.43172011031814167	0.4565686370042673	0.0673518142236643	0.5504895483942686	0.6766417653182384	0.12317167400671536	0.5540135341325731	0.928617918310422	0.19115054270672638	0.5566354811504384	1.0040522454277965	0.17375846718135232	0.5685930143355116	1.0340742045717808	0.13921162397497946	0.6073585965310413	1.041602430069468
152	2.5762711864406778	0.3059906275180566	0.8421326185130069	0.6251647081640868	0.2709723380391829	1.0321961731122704	0.9450197629477931	0.2687209929575112	1.2395072897481927	1.3061285356359362	0.2740177882576449	1.0839010297517055	1.423639720983624	0.33748680016972876	1.1028196262364973	1.40015871734128	0.22978088837615185	1.3248063780655168	1.3351932881615851	0.10835287976526749	0.8384562807190301	0.6344540039615024	0.07977754393360233	1.001397360233795	0.970498933892916	0.07717574930069156	1.204555369676935	1.3245840472500034	0.13531193855283538	1.015090271503614	1.4240253515472192	0.05570500131536014	1.0831553645276746	1.409872360598174	0.0696782271756174	1.268664670099295	1.3526890911439275	0.2523845939049321	0.41522139045552064	0.447637179980644	0.2560531862817625	0.16800334197468933	0.28389719405946084	0.26496240460294157	0.19084689171554628	0.43674501388486675	0.40304451642976924	0.45104067780499074	0.45150952100142994	0.4123867109647771	0.5934089861886436	0.681466119613351	0.37703323548291645	0.5745740878800193	0.9152747205002324	0.31386257616396085	0.5057495701808885	1.0152062430500362	0.3238637425364831	0.5070834339589417	1.054281763231891	0.3275537537633714	0.5776574284650147	1.062006869609628	0.09096345247166988	0.4402460084480432	0.46098159414331064	0.0673058135785571	0.5632531016112028	0.6815753376606779	0.12635377526746822	0.5580853826537959	0.9379224535228455	0.19275113149684167	0.5586894853470472	1.0100113463241793	0.1746750045432271	0.5707625133371325	1.042792561500611	0.13939645950195428	0.6107872457537915	1.0468443006082713
